<svg width="513" height="342" viewBox="0 0 513 342" fill="none" xmlns="http://www.w3.org/2000/svg">
<g clip-path="url(#clip0_402_37)">
<path d="M0 0.00390625H513V341.997H0V0.00390625Z" fill="white"/>
<path d="M513 0.00390625V171H256.5L0 0.00390625H513Z" fill="#0052B4"/>
<path d="M513 171V341.997H0L256.5 171H513Z" fill="#D80027"/>
<path d="M162.225 171L134.883 158.14L149.444 131.661L119.754 137.34L115.991 107.348L95.3112 129.406L74.6319 107.348L70.8695 137.34L41.1806 131.66L55.74 158.139L28.3987 171L55.74 183.86L41.1806 210.34L70.8715 204.661L74.6319 234.652L95.3112 212.594L115.991 234.652L119.754 204.661L149.443 210.341L134.882 183.862L162.225 171ZM21.8319 32.3369L30.9307 45.0577L45.8387 40.3345L36.5526 52.919L45.6514 65.6378L30.8134 60.6962L21.5273 73.2797L21.6446 57.6412L6.80664 52.6976L21.7157 47.9764L21.8319 32.3369ZM21.8319 268.721L30.9307 281.441L45.8387 276.718L36.5526 289.303L45.6514 302.023L30.8134 297.08L21.5273 309.662L21.6446 294.025L6.80664 289.081L21.7157 284.36L21.8319 268.721ZM210.806 150.529L201.708 163.249L186.799 158.527L196.086 171.11L186.987 183.831L201.825 178.889L211.111 191.471L210.994 175.834L225.832 170.89L210.923 166.168L210.806 150.529Z" fill="#FFDA44"/>
</g>
<defs>
<clipPath id="clip0_402_37">
<rect width="513" height="342" fill="white"/>
</clipPath>
</defs>
</svg>
