<svg width="250" height="250" viewBox="0 0 250 250" fill="none" xmlns="http://www.w3.org/2000/svg">
<path d="M113.413 0.741898C107.489 2.01116 100.653 6.04971 92.222 12.8575L86.0698 18.05L78.8921 14.5884C72.9677 11.7037 70.2333 11.1267 63.2835 11.1267C51.6625 11.1267 46.5356 12.9729 40.3833 19.2038C34.8007 24.8578 31.2688 31.3195 30.2434 37.6658C29.6738 41.2428 28.7623 42.0505 22.1543 45.3967C12.698 50.0122 6.7736 55.7815 3.1278 63.8586C-0.973726 72.8588 -0.176207 82.7821 5.74822 95.3593L9.96368 104.475L8.02684 111.975C5.74822 121.437 5.74822 126.975 8.02684 136.322L9.84974 143.591L5.74822 152.13C-1.42945 166.899 -1.88518 179.592 4.38104 190.438C8.02684 196.785 10.5333 198.861 20.1036 203.708L28.1927 207.862L30.5852 215.477C37.1932 236.362 55.9919 245.132 75.9299 236.708C86.9812 231.978 86.5255 231.978 92.4499 237.17C95.2982 239.824 101.45 243.862 106.008 246.17C114.325 250.209 114.439 250.324 126.06 249.747C139.959 249.17 146.681 246.516 156.365 237.978C159.783 235.093 162.859 232.67 163.429 232.67C163.885 232.67 167.645 234.17 171.632 236.132C177.784 239.132 180.177 239.593 188.038 239.593C202.963 239.593 211.052 234.285 217.091 220.439C218.458 217.323 219.939 213.285 220.281 211.439C221.078 207.862 221.192 207.746 230.876 203.131C249.789 194.131 255.03 176.246 245.004 154.553C241.358 146.822 240.788 144.399 241.358 140.706C243.409 128.937 243.409 118.091 241.472 111.513L239.535 104.936L242.953 98.7055C249.675 86.4745 251.384 76.2051 248.308 65.8202C246.029 57.8585 240.219 51.5122 230.876 46.5506C221.876 41.7043 221.306 41.1274 219.483 34.6657C217.319 27.0502 210.369 18.1654 203.305 14.1268C197.836 11.0114 195.899 10.5498 188.494 10.5498C181.202 10.5498 178.81 11.1268 172.316 14.2422L164.682 17.9346L156.137 11.5883C151.466 8.12666 145.2 4.20351 142.352 2.93425C136.427 0.280348 121.161 -0.873521 113.413 0.741898ZM134.718 14.0114C142.58 16.4346 153.061 26.1271 157.619 35.4734C162.632 45.6275 163.657 52.8969 163.315 73.5511L162.859 91.8977H176.531C200.229 91.8977 210.255 94.667 219.825 103.552C230.421 113.475 233.269 124.783 227.914 135.629C223.699 143.937 220.167 147.63 212.989 151.207C203.761 155.707 193.393 157.668 177.215 157.668H163.087L163.771 172.899C164.796 192.054 163.429 200.592 157.846 212.477C149.985 229.324 139.39 237.285 124.92 237.285C115.122 237.285 107.489 233.708 100.539 225.862C88.918 212.823 85.5001 200.823 86.1837 174.976L86.5255 158.245L80.4871 158.591C72.1701 159.053 52.574 156.861 44.8266 154.668C36.7375 152.361 26.8255 144.63 22.61 137.36C14.407 123.168 22.2683 105.513 41.1808 96.3978C47.7889 93.1669 49.7257 92.8208 62.9417 92.3592C70.9169 92.0131 79.5757 91.5515 82.0822 91.2054L86.8673 90.6284L86.2976 74.2435C85.8419 61.5509 86.0698 56.1277 87.5509 49.8968C90.9688 35.4734 98.2604 23.8193 107.261 18.3961C117.971 12.0498 124.579 11.0114 134.718 14.0114ZM72.2841 26.3578C77.0692 28.8963 77.411 29.2425 77.2971 33.6272C77.2971 36.1657 76.3856 41.3582 75.3602 45.1659C74.2209 48.9737 73.0816 56.0123 72.7398 60.7432C72.398 65.474 71.9423 71.5896 71.6005 74.2435L71.0308 79.2051H61.5745C47.6749 79.2051 32.1803 84.1668 24.7747 90.9746C23.5215 92.2439 21.4707 93.0516 20.2175 92.8208C17.2553 92.3592 13.8373 84.2822 13.2677 76.782C12.812 70.4357 12.9259 69.9742 17.3692 65.1279C20.1036 62.1278 25.2305 58.5508 30.0156 56.1277C38.6744 51.9738 39.4719 50.7045 42.548 38.2427C43.6873 33.7426 50.1814 26.0117 54.0551 24.627C58.3845 23.0116 67.499 23.9347 72.2841 26.3578ZM197.495 25.5501C202.28 27.9733 206.495 33.6272 207.862 39.1658C211.28 53.0123 210.711 52.2045 218.23 54.8584C234.864 60.5124 241.358 72.1665 235.32 85.5514C231.674 93.6285 231.446 93.7439 217.432 86.5899C206.039 80.7051 204.216 80.2436 195.33 79.6667C189.975 79.3205 184.051 78.8589 182 78.5128L178.468 77.9359L177.67 65.5894C177.329 58.7816 175.848 48.9737 174.594 43.8967C173.341 38.7043 172.544 33.2811 172.771 31.781C173.683 25.6655 189.861 21.5116 197.495 25.5501ZM24.2051 158.707C34.231 165.745 46.6495 170.015 60.8909 171.169L71.7144 172.092L72.5119 185.707C72.9677 193.208 74.4488 203.592 75.702 208.785C77.6388 217.323 77.7528 218.477 76.1577 220.9C73.7652 224.593 70.0054 225.747 60.5492 225.747C48.2446 225.747 46.1938 223.785 42.0923 207.862C40.1555 200.362 39.1301 198.4 36.8515 197.477C26.5976 193.208 17.9389 187.9 15.6602 184.323C11.4448 177.976 12.5841 164.361 17.711 158.014C19.42 155.937 20.6732 156.168 24.2051 158.707ZM232.813 159.514C236.231 163.899 237.826 169.899 237.257 176.13C236.345 185.13 230.535 190.9 217.319 195.746L210.369 198.285L209.002 205.669C205.584 223.9 192.823 232.093 178.81 224.939C176.987 224.016 174.253 222.17 172.999 220.9L170.493 218.708L173.227 210.746C175.05 205.669 176.189 199.092 176.645 192.054C176.873 186.169 177.443 179.13 177.784 176.361L178.354 171.515H183.709C195.786 171.399 204.9 169.322 215.61 164.015C221.306 161.13 226.091 158.245 226.091 157.668C226.091 155.361 230.535 156.63 232.813 159.514Z" fill="#44D6ED"/>
<path d="M95.0722 111.205C95.0722 111.552 96.8951 113.975 99.0598 116.629C101.225 119.167 103.047 121.706 103.047 122.167C103.047 122.629 100.541 126.436 97.3509 130.59C94.2747 134.744 91.6543 138.437 91.6543 138.898C91.6543 139.36 94.3886 137.052 97.8066 133.706C101.225 130.475 104.642 127.821 105.326 127.821C105.896 127.821 109.314 129.437 112.846 131.398C122.758 137.167 133.353 136.129 141.328 128.744C143.721 126.552 143.721 126.552 148.62 130.706C155.57 136.591 156.139 136.244 150.899 129.552C146.683 124.244 146.683 122.629 150.557 116.859C153.633 112.128 152.835 112.359 146.797 117.667C144.518 119.629 144.404 119.629 140.645 116.859C132.328 110.628 122.871 110.282 111.364 115.936C105.668 118.59 101.908 118.821 101.908 116.513C101.908 116.052 100.427 114.436 98.4902 113.052C96.6673 111.552 95.0722 110.744 95.0722 111.205Z" fill="#FDCD60"/>
</svg>
