<svg width="400" height="400" viewBox="0 0 400 400" fill="none" xmlns="http://www.w3.org/2000/svg">
<path d="M200.066 394.263C307.453 394.263 394.508 307.217 394.508 199.84C394.508 92.4631 307.453 5.41699 200.066 5.41699C92.678 5.41699 5.62305 92.4631 5.62305 199.84C5.62305 307.217 92.678 394.263 200.066 394.263Z" fill="#12BFFE"/>
<path d="M200.048 13.5146C97.1873 13.5146 13.7334 96.9958 13.7334 199.846C13.7334 302.696 97.1873 386.177 200.048 386.177C302.908 386.177 386.398 302.696 386.398 199.846C386.398 96.9958 302.908 13.5146 200.048 13.5146Z" fill="white"/>
<path d="M200.047 20.459C100.937 20.459 20.6641 100.758 20.6641 199.86C20.6641 298.962 100.937 379.261 200.047 379.261C299.158 379.261 379.466 298.961 379.466 199.86C379.466 100.759 299.158 20.459 200.047 20.459Z" fill="url(#paint0_linear_352_6242)"/>
<path d="M241.884 180.527C288.412 203.21 302.871 261.004 302.871 282.388H285.445C285.445 243.119 270.664 210.62 236.656 180.527C270.664 150.418 285.445 117.702 285.445 78.46H302.871C302.871 99.8182 288.412 157.841 241.884 180.527Z" fill="white"/>
<path d="M233.172 180.527C250.624 195.369 282.394 226.536 281.961 282.388H264.536C264.536 257.526 255.671 213.687 227.944 180.527C255.671 147.365 264.536 103.319 264.536 78.46H281.961C282.394 134.283 250.624 165.698 233.172 180.527Z" fill="white"/>
<path d="M224.46 180.527C236.541 194.905 261.493 230.905 261.052 282.388H243.627C244.531 259.698 239.793 207.984 219.232 180.527C239.793 153.037 244.531 101.134 243.627 78.46H261.052C261.493 129.929 236.541 166.132 224.46 180.527Z" fill="white"/>
<path d="M215.747 180.527C226.458 192.736 241.046 232.641 240.141 282.388H222.717C222.717 254.896 223.042 205.815 210.52 180.527C223.042 155.222 222.717 105.923 222.717 78.46H240.141C241.046 128.177 226.458 168.301 215.747 180.527Z" fill="white"/>
<path d="M201.808 282.388H219.232C219.677 244.854 217.336 202.777 207.035 180.527C217.336 158.276 219.677 115.952 219.232 78.46H201.808V282.388Z" fill="white"/>
<path d="M158.247 180.527C111.719 203.21 97.2588 261.004 97.2588 282.388H114.684C114.684 243.118 129.466 210.62 163.474 180.527C129.466 150.418 114.684 117.702 114.684 78.46H97.2588C97.2588 99.8182 111.719 157.841 158.247 180.527Z" fill="white"/>
<path d="M166.958 180.527C149.506 195.369 117.736 226.536 118.169 282.388H135.594C135.594 257.526 144.459 213.687 172.185 180.527C144.459 147.365 135.594 103.319 135.594 78.46H118.169C117.736 134.283 149.506 165.698 166.958 180.527Z" fill="white"/>
<path d="M175.671 180.527C163.589 194.905 138.637 230.905 139.079 282.388H156.503C155.599 259.698 160.338 207.984 180.898 180.527C160.338 153.037 155.599 101.134 156.503 78.46H139.079C138.637 129.929 163.589 166.132 175.671 180.527Z" fill="white"/>
<path d="M184.383 180.527C173.671 192.736 159.084 232.641 159.988 282.388H177.413C177.413 254.895 177.087 205.815 189.611 180.527C177.087 155.222 177.413 105.923 177.413 78.46H159.988C159.084 128.177 173.671 168.301 184.383 180.527Z" fill="white"/>
<path d="M198.323 282.388H180.899C180.453 244.854 182.796 202.777 193.096 180.527C182.796 158.276 180.453 115.952 180.899 78.46H198.323V282.388Z" fill="white"/>
<path d="M198.996 290.788C189.72 290.699 182.688 295.759 180.209 304.612C179.11 308.536 179.421 316.457 180.827 320.58C182.67 325.984 187.412 330.077 193.54 331.525C198.33 332.656 205.38 332.073 209.273 330.223C213.072 328.417 214.634 327.03 216.812 323.513C219.313 319.475 219.223 319.37 212.804 319.37C207.676 319.37 207.11 319.484 206.536 320.598C205.124 323.336 198.912 324.359 195.306 322.45C192.971 321.214 191.448 319.157 190.962 316.583L190.591 314.676H204.876H219.143L218.86 309.745C218.209 298.91 212.955 292.723 203.093 291.137C201.682 290.91 200.321 290.801 198.996 290.788ZM241.426 290.788C235.745 290.981 230.66 292.669 228.201 295.408C226.669 297.115 224.669 301.614 224.652 303.383C224.64 304.659 224.826 304.703 229.914 304.703H235.176L235.988 302.815C237.119 300.156 238.933 299.346 243.227 299.588C246.173 299.754 247.027 300.042 247.889 301.147C250.596 304.618 248.663 306.052 239.607 307.361C227.944 309.048 224.053 311.914 223.61 319.131C223.484 321.182 223.552 323.533 223.751 324.356C224.361 326.876 227.909 330.437 230.779 331.396C233.926 332.448 240.385 332.195 243.28 330.901C244.368 330.415 246.148 329.325 247.235 328.481L249.213 326.941L249.707 329.031L250.184 331.103H256.346C263.001 331.103 263.503 330.82 261.237 328.316C260.014 326.964 259.962 326.428 259.684 312.33L259.383 297.737L257.688 295.885C255.203 293.172 252.313 291.846 247.235 291.1C245.284 290.814 243.32 290.724 241.426 290.788ZM111.682 290.843C107.761 290.931 104.001 291.632 101.564 292.933C97.7364 294.978 94.6782 299.534 94.6782 303.218C94.6782 304.704 94.6789 304.703 100.046 304.703C104.557 304.703 105.414 304.564 105.414 303.787C105.414 303.278 106.165 302.09 107.073 301.147C108.499 299.666 109.152 299.423 111.841 299.423C113.554 299.423 115.583 299.684 116.361 299.992C119.049 301.053 119.647 304.563 117.35 305.84C116.804 306.143 113.322 306.831 109.616 307.361C105.91 307.892 101.666 308.866 100.187 309.525C94.0521 312.258 91.3383 319.362 94.0602 325.585C95.2472 328.298 97.6267 330.29 101.088 331.47C105.885 333.104 114.277 331.385 117.685 328.06C119.012 326.766 119.248 326.945 119.663 329.636C119.829 330.713 120.347 330.822 125.914 330.975C132.342 331.151 132.956 330.855 130.981 328.591C130.109 327.592 129.983 325.862 129.851 313.888C129.769 306.419 129.565 299.722 129.41 299.002C128.91 296.686 125.833 293.667 122.718 292.457C119.682 291.277 115.603 290.756 111.682 290.843ZM155.154 290.972C151.744 290.983 148.44 291.338 146.714 292.017C140.786 294.347 137.89 298.726 138.309 304.74C138.738 310.895 141.983 313.243 153.759 315.868C162.822 317.888 163.742 318.308 163.505 320.433C163.228 322.924 160.279 324.195 155.507 323.88C151.221 323.596 148.899 322.299 148.356 319.901C148.046 318.536 147.834 318.486 142.264 318.325C136.584 318.16 136.496 318.178 136.508 319.498C136.526 321.501 138.394 325.334 140.233 327.125C142.305 329.141 146.239 330.934 150.121 331.653C154.269 332.421 162.145 331.977 165.695 330.773C171.789 328.705 175.209 323.996 174.806 318.215C174.362 311.837 170.717 309.138 159.303 306.775C149.592 304.764 147.923 303.731 149.751 300.835C151.454 298.135 158.903 298.198 161.21 300.927C161.909 301.754 162.481 302.807 162.481 303.273C162.481 303.956 163.599 304.117 168.202 304.117H173.923L173.517 301.935C172.64 297.078 169.371 293.599 164.176 291.962C162.065 291.296 158.564 290.96 155.154 290.972ZM293.002 290.972C287.874 290.943 285.416 291.763 282.585 294.455C281.404 295.578 280.335 296.49 280.219 296.49C280.102 296.49 280.007 295.434 280.007 294.143V291.797H274.639H269.271V311.45V331.103H274.922H280.572L280.59 318.93C280.6 308.353 280.74 306.451 281.649 304.373C282.936 301.431 285.524 300.01 289.612 300.01C292.091 300.01 292.785 300.28 294.185 301.733L295.828 303.438V317.28V331.103H301.478H307.128V315.831C307.128 299.241 306.981 298.233 303.967 295.097C301.282 292.302 297.81 290.998 293.002 290.972ZM198.714 299.625C202.962 299.623 207.118 302.522 207.118 306.445C207.118 307.6 206.806 307.636 199.208 307.636C191.381 307.636 191.296 307.623 191.298 306.316C191.3 304.646 193.172 301.445 194.6 300.652C195.885 299.937 197.298 299.626 198.714 299.625ZM248.93 312.476V315.483C248.928 319.167 247.549 321.734 244.869 323.055C240.288 325.312 236.386 324.744 234.928 321.588C234.328 320.288 234.353 319.67 235.034 317.976C235.729 316.249 236.321 315.78 238.831 315.006C240.465 314.503 242.447 314.086 243.245 314.071C244.043 314.057 245.646 313.697 246.812 313.265L248.93 312.476ZM118.586 312.916C118.887 312.916 119.014 314.336 118.868 316.161C118.593 319.613 117.292 321.648 114.384 323.22C110.45 325.345 105.246 324.416 104.531 321.46C104.01 319.303 104.664 317.188 106.173 316.161C107.262 315.42 116.831 312.916 118.586 312.916Z" fill="white"/>
<defs>
<linearGradient id="paint0_linear_352_6242" x1="68.2584" y1="379.261" x2="331.872" y2="20.459" gradientUnits="userSpaceOnUse">
<stop stop-color="#16C1FC"/>
<stop offset="0.5" stop-color="#2DCCF5"/>
<stop offset="1" stop-color="#5CE0E6"/>
</linearGradient>
</defs>
</svg>
